<svg xmlns="http://www.w3.org/2000/svg" viewBox="0 0 51 42" width="51" height="42" style="image-rendering:pixelated" role="img" aria-label="Clawd">
  <g fill="#D77757">
    <rect x="3" y="0" width="3" height="3"/>
    <rect x="6" y="0" width="3" height="3"/>
    <rect x="9" y="0" width="3" height="3"/>
    <rect x="12" y="0" width="3" height="3"/>
    <rect x="15" y="0" width="3" height="3"/>
    <rect x="18" y="0" width="3" height="3"/>
    <rect x="21" y="0" width="3" height="3"/>
    <rect x="24" y="0" width="3" height="3"/>
    <rect x="27" y="0" width="3" height="3"/>
    <rect x="30" y="0" width="3" height="3"/>
    <rect x="33" y="0" width="3" height="3"/>
    <rect x="36" y="0" width="3" height="3"/>
    <rect x="39" y="0" width="3" height="3"/>
    <rect x="42" y="0" width="3" height="3"/>
    <rect x="45" y="0" width="3" height="3"/>
    <rect x="3" y="3" width="3" height="3"/>
    <rect x="6" y="3" width="3" height="3"/>
    <rect x="9" y="3" width="3" height="3"/>
    <rect x="12" y="3" width="3" height="3"/>
    <rect x="15" y="3" width="3" height="3"/>
    <rect x="18" y="3" width="3" height="3"/>
    <rect x="21" y="3" width="3" height="3"/>
    <rect x="24" y="3" width="3" height="3"/>
    <rect x="27" y="3" width="3" height="3"/>
    <rect x="30" y="3" width="3" height="3"/>
    <rect x="33" y="3" width="3" height="3"/>
    <rect x="36" y="3" width="3" height="3"/>
    <rect x="39" y="3" width="3" height="3"/>
    <rect x="42" y="3" width="3" height="3"/>
    <rect x="45" y="3" width="3" height="3"/>
    <rect x="3" y="6" width="3" height="3"/>
    <rect x="6" y="6" width="3" height="3"/>
    <rect x="9" y="6" width="3" height="3"/>
    <rect x="12" y="6" width="3" height="3"/>
    <rect x="15" y="6" width="3" height="3"/>
    <rect x="18" y="6" width="3" height="3"/>
    <rect x="21" y="6" width="3" height="3"/>
    <rect x="24" y="6" width="3" height="3"/>
    <rect x="27" y="6" width="3" height="3"/>
    <rect x="30" y="6" width="3" height="3"/>
    <rect x="33" y="6" width="3" height="3"/>
    <rect x="36" y="6" width="3" height="3"/>
    <rect x="39" y="6" width="3" height="3"/>
    <rect x="42" y="6" width="3" height="3"/>
    <rect x="45" y="6" width="3" height="3"/>
    <rect x="3" y="18" width="3" height="3"/>
    <rect x="6" y="18" width="3" height="3"/>
    <rect x="9" y="18" width="3" height="3"/>
    <rect x="12" y="18" width="3" height="3"/>
    <rect x="15" y="18" width="3" height="3"/>
    <rect x="18" y="18" width="3" height="3"/>
    <rect x="21" y="18" width="3" height="3"/>
    <rect x="24" y="18" width="3" height="3"/>
    <rect x="27" y="18" width="3" height="3"/>
    <rect x="30" y="18" width="3" height="3"/>
    <rect x="33" y="18" width="3" height="3"/>
    <rect x="36" y="18" width="3" height="3"/>
    <rect x="39" y="18" width="3" height="3"/>
    <rect x="42" y="18" width="3" height="3"/>
    <rect x="45" y="18" width="3" height="3"/>
    <rect x="3" y="21" width="3" height="3"/>
    <rect x="6" y="21" width="3" height="3"/>
    <rect x="9" y="21" width="3" height="3"/>
    <rect x="12" y="21" width="3" height="3"/>
    <rect x="15" y="21" width="3" height="3"/>
    <rect x="18" y="21" width="3" height="3"/>
    <rect x="21" y="21" width="3" height="3"/>
    <rect x="24" y="21" width="3" height="3"/>
    <rect x="27" y="21" width="3" height="3"/>
    <rect x="30" y="21" width="3" height="3"/>
    <rect x="33" y="21" width="3" height="3"/>
    <rect x="36" y="21" width="3" height="3"/>
    <rect x="39" y="21" width="3" height="3"/>
    <rect x="42" y="21" width="3" height="3"/>
    <rect x="45" y="21" width="3" height="3"/>
    <rect x="3" y="24" width="3" height="3"/>
    <rect x="6" y="24" width="3" height="3"/>
    <rect x="9" y="24" width="3" height="3"/>
    <rect x="12" y="24" width="3" height="3"/>
    <rect x="15" y="24" width="3" height="3"/>
    <rect x="18" y="24" width="3" height="3"/>
    <rect x="21" y="24" width="3" height="3"/>
    <rect x="24" y="24" width="3" height="3"/>
    <rect x="27" y="24" width="3" height="3"/>
    <rect x="30" y="24" width="3" height="3"/>
    <rect x="33" y="24" width="3" height="3"/>
    <rect x="36" y="24" width="3" height="3"/>
    <rect x="39" y="24" width="3" height="3"/>
    <rect x="42" y="24" width="3" height="3"/>
    <rect x="45" y="24" width="3" height="3"/>
    <rect x="3" y="27" width="3" height="3"/>
    <rect x="6" y="27" width="3" height="3"/>
    <rect x="9" y="27" width="3" height="3"/>
    <rect x="12" y="27" width="3" height="3"/>
    <rect x="15" y="27" width="3" height="3"/>
    <rect x="18" y="27" width="3" height="3"/>
    <rect x="21" y="27" width="3" height="3"/>
    <rect x="24" y="27" width="3" height="3"/>
    <rect x="27" y="27" width="3" height="3"/>
    <rect x="30" y="27" width="3" height="3"/>
    <rect x="33" y="27" width="3" height="3"/>
    <rect x="36" y="27" width="3" height="3"/>
    <rect x="39" y="27" width="3" height="3"/>
    <rect x="42" y="27" width="3" height="3"/>
    <rect x="45" y="27" width="3" height="3"/>
    <rect x="3" y="30" width="3" height="3"/>
    <rect x="6" y="30" width="3" height="3"/>
    <rect x="9" y="30" width="3" height="3"/>
    <rect x="12" y="30" width="3" height="3"/>
    <rect x="15" y="30" width="3" height="3"/>
    <rect x="18" y="30" width="3" height="3"/>
    <rect x="21" y="30" width="3" height="3"/>
    <rect x="24" y="30" width="3" height="3"/>
    <rect x="27" y="30" width="3" height="3"/>
    <rect x="30" y="30" width="3" height="3"/>
    <rect x="33" y="30" width="3" height="3"/>
    <rect x="36" y="30" width="3" height="3"/>
    <rect x="39" y="30" width="3" height="3"/>
    <rect x="42" y="30" width="3" height="3"/>
    <rect x="45" y="30" width="3" height="3"/>
    <rect x="0" y="9" width="3" height="3"/>
    <rect x="0" y="12" width="3" height="3"/>
    <rect x="0" y="15" width="3" height="3"/>
    <rect x="0" y="18" width="3" height="3"/>
    <rect x="48" y="9" width="3" height="3"/>
    <rect x="48" y="12" width="3" height="3"/>
    <rect x="48" y="15" width="3" height="3"/>
    <rect x="48" y="18" width="3" height="3"/>
    <rect x="3" y="9" width="3" height="3"/>
    <rect x="6" y="9" width="3" height="3"/>
    <rect x="15" y="9" width="3" height="3"/>
    <rect x="18" y="9" width="3" height="3"/>
    <rect x="21" y="9" width="3" height="3"/>
    <rect x="24" y="9" width="3" height="3"/>
    <rect x="27" y="9" width="3" height="3"/>
    <rect x="30" y="9" width="3" height="3"/>
    <rect x="33" y="9" width="3" height="3"/>
    <rect x="42" y="9" width="3" height="3"/>
    <rect x="45" y="9" width="3" height="3"/>
    <rect x="3" y="12" width="3" height="3"/>
    <rect x="6" y="12" width="3" height="3"/>
    <rect x="9" y="12" width="3" height="3"/>
    <rect x="18" y="12" width="3" height="3"/>
    <rect x="21" y="12" width="3" height="3"/>
    <rect x="24" y="12" width="3" height="3"/>
    <rect x="27" y="12" width="3" height="3"/>
    <rect x="30" y="12" width="3" height="3"/>
    <rect x="39" y="12" width="3" height="3"/>
    <rect x="42" y="12" width="3" height="3"/>
    <rect x="45" y="12" width="3" height="3"/>
    <rect x="3" y="15" width="3" height="3"/>
    <rect x="6" y="15" width="3" height="3"/>
    <rect x="15" y="15" width="3" height="3"/>
    <rect x="18" y="15" width="3" height="3"/>
    <rect x="21" y="15" width="3" height="3"/>
    <rect x="24" y="15" width="3" height="3"/>
    <rect x="27" y="15" width="3" height="3"/>
    <rect x="30" y="15" width="3" height="3"/>
    <rect x="33" y="15" width="3" height="3"/>
    <rect x="42" y="15" width="3" height="3"/>
    <rect x="45" y="15" width="3" height="3"/>
    <rect x="3" y="33" width="3" height="3"/>
    <rect x="6" y="33" width="3" height="3"/>
    <rect x="12" y="33" width="3" height="3"/>
    <rect x="15" y="33" width="3" height="3"/>
    <rect x="33" y="33" width="3" height="3"/>
    <rect x="36" y="33" width="3" height="3"/>
    <rect x="42" y="33" width="3" height="3"/>
    <rect x="45" y="33" width="3" height="3"/>
    <rect x="3" y="36" width="3" height="3"/>
    <rect x="6" y="36" width="3" height="3"/>
    <rect x="12" y="36" width="3" height="3"/>
    <rect x="15" y="36" width="3" height="3"/>
    <rect x="33" y="36" width="3" height="3"/>
    <rect x="36" y="36" width="3" height="3"/>
    <rect x="42" y="36" width="3" height="3"/>
    <rect x="45" y="36" width="3" height="3"/>
    <rect x="3" y="39" width="3" height="3"/>
    <rect x="6" y="39" width="3" height="3"/>
    <rect x="12" y="39" width="3" height="3"/>
    <rect x="15" y="39" width="3" height="3"/>
    <rect x="33" y="39" width="3" height="3"/>
    <rect x="36" y="39" width="3" height="3"/>
    <rect x="42" y="39" width="3" height="3"/>
    <rect x="45" y="39" width="3" height="3"/>
  </g>
    <rect x="9" y="9" width="3" height="3" fill="#2D2016"/>
    <rect x="12" y="9" width="3" height="3" fill="#2D2016"/>
    <rect x="12" y="12" width="3" height="3" fill="#2D2016"/>
    <rect x="15" y="12" width="3" height="3" fill="#2D2016"/>
    <rect x="9" y="15" width="3" height="3" fill="#2D2016"/>
    <rect x="12" y="15" width="3" height="3" fill="#2D2016"/>
    <rect x="36" y="9" width="3" height="3" fill="#2D2016"/>
    <rect x="39" y="9" width="3" height="3" fill="#2D2016"/>
    <rect x="33" y="12" width="3" height="3" fill="#2D2016"/>
    <rect x="36" y="12" width="3" height="3" fill="#2D2016"/>
    <rect x="36" y="15" width="3" height="3" fill="#2D2016"/>
    <rect x="39" y="15" width="3" height="3" fill="#2D2016"/>
</svg>
